<?xml version="1.0" standalone="no"?>
<!DOCTYPE svg PUBLIC "-//W3C//DTD SVG 20010904//EN"
 "http://www.w3.org/TR/2001/REC-SVG-20010904/DTD/svg10.dtd">
<svg version="1.0" xmlns="http://www.w3.org/2000/svg"
 width="260.000000pt" height="260.000000pt" viewBox="0 0 260.000000 260.000000"
 preserveAspectRatio="xMidYMid meet">
<metadata>
Created by potrace 1.14, written by Peter Selinger 2001-2017
</metadata>
<g transform="translate(0.000000,260.000000) scale(0.100000,-0.100000)"
fill="#000000" stroke="none">
<path d="M357 2038 c-17 -12 -18 -55 -20 -735 -2 -580 1 -724 11 -735 16 -16
249 -24 272 -9 24 16 29 131 29 690 l1 524 36 -6 c46 -8 107 -39 162 -84 78
-64 171 -183 354 -458 218 -325 281 -407 388 -508 89 -83 183 -136 278 -156
83 -17 357 -15 375 4 22 21 31 395 24 973 -4 347 -9 488 -18 498 -9 11 -41 14
-139 14 -106 0 -130 -3 -141 -17 -11 -13 -15 -124 -17 -611 l-3 -594 -27 7
c-74 18 -177 104 -261 218 -23 32 -115 165 -203 295 -220 324 -282 405 -386
503 -97 91 -166 137 -258 171 -51 19 -85 22 -249 26 -148 3 -194 1 -208 -10z"/>
</g>
</svg>
