<?xml version="1.0" standalone="no"?>
<!DOCTYPE svg PUBLIC "-//W3C//DTD SVG 20010904//EN"
 "http://www.w3.org/TR/2001/REC-SVG-20010904/DTD/svg10.dtd">
<svg version="1.0" xmlns="http://www.w3.org/2000/svg"
 width="1200.000000pt" height="260.000000pt" viewBox="0 0 1200.000000 260.000000"
 preserveAspectRatio="xMidYMid meet">

<g transform="translate(0.000000,260.000000) scale(0.100000,-0.100000)"
fill="#000000" stroke="none">
<path d="M0 1300 l0 -1300 6000 0 6000 0 0 1300 0 1300 -6000 0 -6000 0 0
-1300z m950 904 c145 -34 312 -142 445 -287 127 -140 179 -211 420 -572 128
-192 270 -394 314 -448 106 -126 202 -199 294 -221 l27 -6 0 754 c0 703 1 755
17 775 17 21 25 22 188 19 l169 -3 13 -25 c10 -20 13 -219 13 -918 0 -898 -1
-922 -34 -944 -6 -4 -106 -8 -221 -8 -181 0 -221 3 -284 20 -131 37 -235 102
-356 224 -115 116 -187 209 -352 460 -200 305 -277 418 -345 508 -154 204
-292 314 -419 334 l-39 7 0 -741 c0 -734 -2 -784 -33 -804 -7 -4 -83 -8 -169
-8 -167 0 -181 4 -193 53 -3 12 -4 425 -3 918 3 742 5 899 17 912 12 15 41 17
240 17 167 0 243 -4 291 -16z m2692 -1 c17 -15 18 -57 18 -931 0 -838 -1 -917
-17 -934 -14 -16 -34 -18 -175 -18 -145 0 -160 2 -178 20 -20 20 -20 33 -20
928 0 805 2 910 16 930 15 21 21 22 176 22 136 0 164 -3 180 -17z m904 -298
c251 -446 235 -435 600 -435 201 0 229 2 278 21 91 33 123 76 307 403 93 164
173 304 180 312 9 11 51 14 200 14 176 0 189 -1 199 -19 5 -11 10 -29 10 -41
0 -29 -422 -770 -476 -836 l-42 -51 41 -51 c58 -70 471 -798 475 -838 7 -57
-17 -64 -215 -64 -153 0 -175 2 -190 18 -10 10 -92 150 -183 311 -91 161 -180
310 -198 331 -18 22 -58 51 -90 67 l-57 28 -240 0 -240 0 -68 -33 c-46 -23
-77 -47 -97 -73 -16 -22 -101 -169 -190 -327 -90 -158 -169 -295 -178 -304
-13 -16 -36 -18 -194 -18 -165 0 -179 1 -198 20 -11 11 -20 28 -20 38 0 10 93
182 206 383 243 430 239 424 282 471 l34 37 -45 58 c-57 75 -477 810 -477 836
0 7 7 23 16 35 15 22 18 22 205 20 l190 -3 175 -310z m2414 305 c13 -8 16 -92
20 -622 l5 -613 29 -62 c33 -73 103 -144 174 -176 47 -22 52 -22 622 -22 l575
0 56 28 c67 32 142 109 172 175 22 46 22 54 25 657 2 546 4 611 19 627 14 16
35 18 178 18 146 0 164 -2 179 -19 16 -17 17 -68 14 -652 -3 -634 -3 -634 -27
-704 -70 -210 -198 -359 -386 -450 -150 -72 -129 -70 -815 -70 l-615 0 -77 26
c-221 76 -400 248 -473 456 -42 121 -45 170 -45 783 0 514 2 588 16 608 15 21
21 22 177 22 89 0 169 -5 177 -10z m4354 -23 c139 -55 248 -155 310 -282 45
-92 60 -161 60 -265 0 -250 -182 -480 -430 -544 -54 -14 -155 -16 -758 -16
l-696 0 0 -351 c0 -347 -3 -381 -34 -401 -6 -4 -82 -8 -168 -8 -173 0 -182 3
-193 63 -3 18 -5 260 -3 538 3 482 4 508 22 528 l19 21 851 0 c806 0 853 1
891 19 70 32 105 86 105 161 0 66 -37 129 -95 163 -15 9 -254 13 -887 17 -815
5 -868 6 -885 23 -16 15 -18 37 -18 176 0 120 3 162 14 175 13 15 82 16 920
14 l906 -3 69 -28z"/>
</g>
</svg>
