<?xml version="1.0" standalone="no"?>
<!DOCTYPE svg PUBLIC "-//W3C//DTD SVG 20010904//EN"
 "http://www.w3.org/TR/2001/REC-SVG-20010904/DTD/svg10.dtd">
<svg version="1.0" xmlns="http://www.w3.org/2000/svg"
 width="600.000000pt" height="320.000000pt" viewBox="0 0 600.000000 320.000000"
 preserveAspectRatio="xMidYMid meet">

<g transform="translate(0.000000,320.000000) scale(0.100000,-0.100000)"
fill="#000000" stroke="none">
<path d="M1518 2905 c-15 -8 -32 -24 -38 -35 -16 -30 -12 -152 5 -177 41 -59
222 -55 254 5 6 12 11 54 11 95 0 65 -3 76 -25 97 -21 19 -38 24 -102 27 -57
3 -85 -1 -105 -12z"/>
<path d="M2035 2598 c-78 -28 -145 -116 -145 -189 1 -67 34 -110 248 -323
l210 -209 -211 -218 c-211 -217 -246 -264 -247 -325 0 -46 45 -128 89 -158 56
-39 97 -48 156 -35 47 11 64 26 272 232 l221 219 220 -217 c193 -189 227 -218
269 -231 144 -43 280 98 240 250 -6 19 -85 108 -229 254 l-220 224 215 217
c118 119 220 227 227 241 7 13 13 48 13 76 0 97 -78 185 -177 201 -72 11 -107
-13 -341 -242 l-220 -214 -215 214 c-249 248 -279 267 -375 233z m108 -59 c12
-6 126 -114 252 -239 l230 -228 225 220 c124 121 239 229 255 239 98 62 229
-42 200 -158 -4 -18 -91 -113 -243 -266 l-237 -237 232 -233 c127 -127 236
-242 242 -254 52 -102 -80 -234 -182 -182 -12 6 -127 115 -254 242 l-233 232
-232 -232 c-128 -127 -243 -236 -255 -242 -56 -28 -135 0 -174 61 -15 25 -19
45 -16 80 4 44 11 54 115 165 61 65 167 174 236 243 l126 125 -236 236 c-237
237 -237 237 -241 285 -3 37 1 57 16 82 39 61 118 89 174 61z"/>
<path d="M808 2501 c-79 -26 -134 -60 -195 -121 l-52 -51 -7 46 c-13 89 -91
141 -173 116 -46 -13 -88 -58 -96 -104 -3 -18 -5 -255 -3 -527 3 -544 1 -525
64 -567 35 -22 111 -22 146 1 63 41 63 36 68 431 6 394 6 394 68 458 54 56
105 79 188 85 122 8 190 -27 233 -117 l26 -56 3 -365 c3 -340 5 -367 23 -396
23 -37 69 -59 122 -58 47 2 86 28 110 75 16 31 18 64 14 424 -3 268 -8 406
-17 440 -35 137 -111 239 -209 276 -80 31 -235 36 -313 10z"/>
<path d="M5208 2509 c-58 -13 -148 -62 -200 -108 -25 -23 -49 -41 -52 -41 -3
0 -6 10 -6 23 0 56 -71 117 -137 117 -42 0 -94 -32 -115 -71 -17 -32 -18 -76
-18 -774 0 -716 1 -741 20 -772 10 -18 30 -39 44 -48 33 -22 107 -21 145 1 57
33 61 57 61 323 l0 242 71 -50 c103 -73 179 -96 309 -95 163 2 264 46 377 168
115 123 166 264 167 461 0 84 -6 141 -18 190 -58 223 -222 391 -424 434 -61
13 -170 13 -224 0z m189 -260 c278 -105 290 -586 17 -720 -67 -33 -196 -34
-266 -2 -218 99 -276 445 -107 637 85 97 230 132 356 85z"/>
<path d="M1554 2486 c-17 -7 -42 -29 -55 -47 l-24 -34 0 -510 c0 -556 0 -556
57 -596 40 -29 118 -30 156 -3 63 47 62 39 62 589 0 456 -2 503 -18 534 -33
67 -113 97 -178 67z"/>
<path d="M3571 2483 c-19 -10 -44 -31 -55 -46 -20 -28 -21 -40 -21 -395 0
-406 4 -436 66 -552 100 -189 330 -276 593 -226 197 38 329 169 370 368 13 62
16 146 16 420 0 313 -2 346 -18 377 -34 64 -110 87 -179 55 -68 -33 -67 -28
-74 -434 -5 -386 -7 -402 -56 -468 -75 -101 -282 -109 -376 -15 -63 62 -67 91
-67 477 0 305 -2 345 -18 375 -35 70 -116 98 -181 64z"/>
<path d="M850 415 l0 -165 95 0 c78 0 95 3 95 15 0 12 -15 15 -75 15 l-75 0 0
60 0 60 60 0 c53 0 60 2 60 20 0 18 -7 20 -60 20 l-60 0 0 50 0 50 75 0 c68 0
75 2 75 20 0 19 -7 20 -95 20 l-95 0 0 -165z"/>
<path d="M1120 415 c0 -158 1 -165 20 -165 18 0 20 7 20 75 l0 75 60 0 c47 0
60 3 60 15 0 12 -13 15 -60 15 l-60 0 0 55 0 55 70 0 c63 0 70 2 70 20 0 19
-7 20 -90 20 l-90 0 0 -165z"/>
<path d="M1370 415 c0 -158 1 -165 20 -165 18 0 20 7 20 75 l0 75 60 0 c47 0
60 3 60 15 0 12 -13 15 -60 15 l-60 0 0 55 0 55 70 0 c63 0 70 2 70 20 0 19
-7 20 -90 20 l-90 0 0 -165z"/>
<path d="M1674 570 c-53 -21 -90 -105 -81 -182 15 -121 120 -184 208 -125 47
31 69 80 69 150 0 70 -27 130 -70 152 -31 16 -92 19 -126 5z m90 -30 c38 -14
66 -66 66 -122 0 -89 -35 -138 -99 -138 -48 0 -86 39 -96 99 -10 62 15 135 54
156 31 17 42 18 75 5z"/>
<path d="M1950 415 c0 -158 1 -165 20 -165 18 0 20 7 20 70 l0 70 29 0 c27 0
34 -8 68 -70 30 -55 43 -70 61 -70 l23 0 -32 58 c-18 31 -36 62 -41 69 -7 8 0
17 21 28 35 18 52 64 39 110 -13 46 -50 62 -145 64 l-63 1 0 -165z m157 113
c7 -6 13 -25 13 -44 0 -42 -30 -64 -87 -64 l-43 0 0 66 0 67 52 -7 c29 -4 58
-12 65 -18z"/>
<path d="M2200 560 c0 -17 7 -20 50 -20 l50 0 0 -145 c0 -138 1 -145 20 -145
19 0 20 7 20 145 l0 145 50 0 c43 0 50 3 50 20 0 19 -7 20 -120 20 -113 0
-120 -1 -120 -20z"/>
<path d="M2507 573 c-4 -3 -7 -78 -7 -165 l0 -158 95 0 c78 0 95 3 95 15 0 12
-15 15 -75 15 l-75 0 0 150 c0 118 -3 150 -13 150 -8 0 -17 -3 -20 -7z"/>
<path d="M2750 415 l0 -165 95 0 c78 0 95 3 95 15 0 12 -15 15 -75 15 l-75 0
0 60 0 60 60 0 c53 0 60 2 60 20 0 18 -7 20 -60 20 l-60 0 0 50 0 50 75 0 c68
0 75 2 75 20 0 19 -7 20 -95 20 l-95 0 0 -165z"/>
<path d="M3036 555 c-27 -25 -35 -75 -17 -104 5 -8 40 -30 77 -50 82 -44 94
-59 71 -95 -14 -21 -25 -26 -58 -26 -23 0 -54 8 -70 17 -15 9 -32 14 -36 9
-13 -13 13 -41 53 -55 97 -34 189 36 154 118 -9 22 -30 38 -86 65 -62 30 -74
39 -74 60 0 27 33 56 63 56 10 0 31 -7 47 -15 38 -19 53 0 20 27 -34 28 -110
25 -144 -7z"/>
<path d="M3299 551 c-55 -55 -32 -105 67 -153 46 -22 66 -37 70 -55 14 -54
-60 -82 -128 -47 -21 11 -33 13 -41 5 -15 -15 9 -39 53 -52 79 -24 160 18 160
81 0 49 -17 70 -83 99 -94 42 -112 79 -55 110 27 16 31 15 99 -13 31 -13 30
23 -1 39 -49 25 -107 20 -141 -14z"/>
<path d="M3650 416 l0 -166 68 0 c108 0 159 42 169 143 4 41 1 64 -15 100 -25
57 -64 78 -154 85 l-68 5 0 -167z m149 108 c67 -47 66 -183 -2 -224 -18 -11
-49 -20 -69 -20 l-38 0 0 130 0 130 43 0 c23 0 53 -7 66 -16z"/>
<path d="M3967 573 c-4 -3 -7 -78 -7 -165 l0 -158 100 0 c81 0 100 3 100 15 0
11 -18 15 -77 17 l-78 3 -3 58 -3 57 66 0 c58 0 65 2 65 20 0 18 -7 20 -65 20
l-65 0 0 50 0 50 75 0 c68 0 75 2 75 20 0 18 -7 20 -88 20 -49 0 -92 -3 -95
-7z"/>
<path d="M4190 568 c0 -7 22 -80 49 -163 44 -139 50 -150 74 -153 25 -3 27 2
76 156 28 88 51 163 51 166 0 3 -9 6 -20 6 -13 0 -22 -10 -28 -32 -51 -186
-77 -259 -84 -242 -4 11 -24 76 -44 147 -30 104 -40 127 -55 127 -11 0 -19 -6
-19 -12z"/>
<path d="M4534 561 c-42 -25 -64 -77 -64 -148 0 -71 22 -119 69 -150 61 -41
142 -21 183 46 29 46 32 149 5 199 -36 67 -128 92 -193 53z m109 -23 c52 -27
74 -96 57 -169 -14 -56 -47 -89 -92 -89 -63 0 -98 48 -98 135 0 97 67 159 133
123z"/>
<path d="M4820 416 c0 -159 1 -166 20 -166 18 0 20 7 20 64 l0 64 66 4 c58 4
70 8 91 32 19 23 23 37 21 74 -4 65 -33 84 -138 90 l-80 5 0 -167z m163 113
c22 -12 23 -81 1 -100 -8 -7 -40 -14 -70 -17 l-54 -4 0 64 c0 36 3 68 7 72 9
9 91 -2 116 -15z"/>
<path d="M5129 551 c-55 -55 -31 -107 70 -156 43 -20 63 -36 67 -52 14 -54
-61 -82 -128 -47 -21 11 -33 13 -41 5 -15 -15 9 -39 53 -52 79 -24 160 18 160
81 0 49 -17 70 -83 99 -94 42 -112 79 -55 110 27 16 31 15 99 -13 31 -13 30
23 -1 39 -49 25 -107 20 -141 -14z"/>
</g>
</svg>
