<?xml version="1.0" encoding="UTF-8" standalone="no"?>
<!-- Created with Inkscape (http://www.inkscape.org/) -->

<svg
   width="260"
   height="260"
   viewBox="0 0 68.791664 68.791664"
   version="1.1"
   id="svg1"
   inkscape:version="1.3.2 (091e20e, 2023-11-25)"
   sodipodi:docname="favicon.svg"
   inkscape:export-filename="favicon.png"
   inkscape:export-xdpi="96"
   inkscape:export-ydpi="96"
   xmlns:inkscape="http://www.inkscape.org/namespaces/inkscape"
   xmlns:sodipodi="http://sodipodi.sourceforge.net/DTD/sodipodi-0.dtd"
   xmlns="http://www.w3.org/2000/svg"
   xmlns:svg="http://www.w3.org/2000/svg">
  <sodipodi:namedview
     id="namedview1"
     pagecolor="#ffffff"
     bordercolor="#000000"
     borderopacity="0.25"
     inkscape:showpageshadow="2"
     inkscape:pageopacity="0.0"
     inkscape:pagecheckerboard="0"
     inkscape:deskcolor="#d1d1d1"
     inkscape:document-units="mm"
     inkscape:zoom="0.70910507"
     inkscape:cx="215.76492"
     inkscape:cy="490.75943"
     inkscape:window-width="1872"
     inkscape:window-height="1027"
     inkscape:window-x="49"
     inkscape:window-y="25"
     inkscape:window-maximized="1"
     inkscape:current-layer="layer1"
     inkscape:export-bgcolor="#ffffffff" />
  <defs
     id="defs1" />
  <g
     inkscape:label="Text"
     inkscape:groupmode="layer"
     id="layer1"
     transform="translate(-4.1233617,-7.9406168)">
    <g
       id="g27"
       transform="matrix(0.20883183,0,0,0.20883183,4.5670806,14.561868)">
      <path
         d="m 65.900391,37.999512 c -19.89998,0 -22.800002,0.200685 -24,1.700683 -1.199999,1.299999 -1.400684,16.999782 -1.700684,91.199705 -0.1,49.29995 2.93e-4,90.6003 0.300293,91.8003 1.199999,4.89999 2.599333,5.2998 19.299316,5.2998 8.599992,0 16.201368,-0.39981 16.901368,-0.7998 3.099996,-2 3.298828,-7.00096 3.298828,-80.40088 V 72.700195 l 3.900879,0.700196 c 12.699987,1.999998 26.498939,12.999922 41.898929,33.399899 6.79999,8.99999 14.50002,20.29935 34.5,50.79932 16.49998,25.09997 23.7002,34.4005 35.20019,46.00049 12.09999,12.19999 22.50011,18.70039 35.6001,22.40039 6.29999,1.7 10.30041,1.99951 28.40039,1.99951 11.49999,0 21.5001,-0.39981 22.1001,-0.7998 3.29999,-2.2 3.3999,-4.60049 3.3999,-94.4004 0,-69.899925 -0.29932,-89.80029 -1.29932,-91.800288 L 282.3999,38.500488 265.5,38.200195 c -16.29998,-0.299999 -17.09981,-0.200095 -18.7998,1.899903 -1.6,1.999998 -1.70069,7.200558 -1.70069,77.500492 v 75.3999 l -2.69971,-0.60059 c -9.19999,-2.2 -18.79942,-9.50011 -29.39941,-22.1001 C 208.5004,164.89981 194.29999,144.70047 181.5,125.50049 157.40002,89.400524 152.19999,82.299791 139.5,68.299805 126.20001,53.799819 109.4995,43.000583 94.999512,39.600586 90.199517,38.400587 82.600374,37.999512 65.900391,37.999512 Z"
         id="path23"
         inkscape:label="N" />
    </g>
  </g>
</svg>
