<?xml version="1.0" encoding="UTF-8" standalone="no"?>
<!-- Created with Inkscape (http://www.inkscape.org/) -->

<svg
   width="640"
   height="160"
   viewBox="0 0 169.33333 42.333332"
   version="1.1"
   id="svg1"
   inkscape:version="1.3.2 (091e20e, 2023-11-25)"
   sodipodi:docname="logo-white.svg"
   xmlns:inkscape="http://www.inkscape.org/namespaces/inkscape"
   xmlns:sodipodi="http://sodipodi.sourceforge.net/DTD/sodipodi-0.dtd"
   xmlns="http://www.w3.org/2000/svg"
   xmlns:svg="http://www.w3.org/2000/svg">
  <sodipodi:namedview
     id="namedview1"
     pagecolor="#ffffff"
     bordercolor="#000000"
     borderopacity="0.25"
     inkscape:showpageshadow="2"
     inkscape:pageopacity="0.0"
     inkscape:pagecheckerboard="0"
     inkscape:deskcolor="#d1d1d1"
     inkscape:document-units="mm"
     inkscape:zoom="0.70910507"
     inkscape:cx="232.68766"
     inkscape:cy="520.37422"
     inkscape:window-width="1872"
     inkscape:window-height="1027"
     inkscape:window-x="49"
     inkscape:window-y="25"
     inkscape:window-maximized="1"
     inkscape:current-layer="layer1" />
  <defs
     id="defs1" />
  <g
     inkscape:label="Text"
     inkscape:groupmode="layer"
     id="layer1">
    <g
       id="g27"
       transform="matrix(0.13922122,0,0,0.13922122,0.53788319,2.6502784)">
      <path
         d="m 1033.8999,38.200195 c -83.79991,-0.199999 -90.69951,-0.09961 -91.99951,1.400391 -1.1,1.299999 -1.40039,5.499035 -1.40039,17.499023 0,13.899986 0.20029,16.1001 1.80029,17.600098 1.7,1.699998 7.00008,1.799805 88.50001,2.299805 63.2999,0.399999 87.1992,0.800684 88.6992,1.700683 5.8,3.399997 9.501,9.699323 9.501,16.299317 0,7.499988 -3.5,12.900098 -10.5,16.100098 -3.8,1.8 -8.5007,1.8999 -89.1006,1.8999 h -85.1001 l -1.8999,2.10059 c -1.8,2 -1.90019,4.60034 -2.20019,52.80029 -0.2,27.79997 2.9e-4,51.99932 0.30029,53.79932 1.1,5.99999 1.99933,6.30029 19.29932,6.30029 8.59999,0 16.20029,-0.39981 16.80029,-0.7998 3.1,-2 3.3999,-5.40014 3.3999,-40.1001 v -35.10059 h 69.60059 c 60.2999,0 70.3998,-0.19961 75.7998,-1.59961 24.8,-6.39999 43.0005,-29.39992 43.0005,-54.3999 0,-10.39999 -1.5,-17.300497 -6,-26.500488 -6.2,-12.699988 -17.1005,-22.699713 -31.0005,-28.199707 l -6.8994,-2.799317 z"
         id="path27"
         style="fill:#ffffff;fill-opacity:1"
         inkscape:label="P" />
      <path
         d="m 678.30029,37.999512 c -15.59998,0 -16.19971,0.100197 -17.6997,2.200195 -1.4,1.999998 -1.60108,9.399856 -1.60108,60.799803 0,61.29994 0.30001,66.20031 4.5,78.30029 7.29999,20.79998 25.19983,38.0006 47.29981,45.60059 l 7.70068,2.6001 H 780 c 68.59993,0 66.49953,0.1995 81.49951,-7.00049 18.79998,-9.09999 31.60011,-24.00002 38.6001,-45 2.4,-6.99999 2.39971,-7.00045 2.69971,-70.40039 0.3,-58.399942 0.20107,-63.500198 -1.39893,-65.200196 -1.5,-1.699998 -3.3004,-1.899902 -17.90039,-1.899902 -14.29999,0 -16.39932,0.200294 -17.79932,1.800293 -1.49999,1.599998 -1.70136,8.099761 -1.90136,62.699705 -0.3,60.29994 -0.29903,61.10118 -2.49903,65.70117 -2.99999,6.6 -10.5002,14.29903 -17.20019,17.49903 l -5.6001,2.80078 h -57.49951 c -56.99994,0 -57.5002,-2e-4 -62.2002,-2.2002 -7.09999,-3.19999 -14.10088,-10.3001 -17.40088,-17.60009 l -2.89892,-6.20069 -0.50098,-61.29931 C 697.59951,48.200248 697.3,39.799999 696,39 c -0.8,-0.499999 -8.79972,-1.000488 -17.69971,-1.000488 z"
         id="path26"
         style="fill:#ffffff;fill-opacity:1"
         inkscape:label="U" />
      <path
         d="m 611.10059,37.999512 c -14.89999,0 -19.10098,0.300391 -20.00098,1.40039 -0.7,0.8 -8.70001,14.799724 -18,31.199707 -18.39998,32.699971 -21.60021,37.000781 -30.7002,40.300781 -4.89999,1.9 -7.69982,2.09912 -27.7998,2.09912 -36.49996,0 -34.90003,1.09996 -60,-43.499998 L 437.10059,38.500488 418.1001,38.200195 c -18.69998,-0.199999 -19.00049,-0.200486 -20.50049,1.999512 -0.9,1.199999 -1.59961,2.800977 -1.59961,3.500977 0,2.599997 41.99971,76.098636 47.69971,83.598636 l 4.5,5.80078 -3.39991,3.70019 c -4.29999,4.7 -3.89973,4.09917 -28.1997,47.09912 C 405.30011,203.99939 396,221.20068 396,222.20068 c 0,1 0.89951,2.69981 1.99951,3.79981 1.9,1.9 3.30031,1.99951 19.80029,1.99951 15.79999,0 18.1004,-0.20029 19.4004,-1.80029 0.89999,-0.9 8.79932,-14.59992 17.79931,-30.39991 C 463.8995,179.99982 472.4,165.3001 474,163.1001 c 2,-2.6 5.1002,-5.00079 9.7002,-7.30078 l 6.7998,-3.29883 h 24 24 l 5.69971,2.79931 c 3.19999,1.6 7.2,4.5002 9,6.7002 1.8,2.1 10.7003,16.99963 19.80029,33.09961 9.09999,16.09998 17.30029,30.1001 18.30029,31.1001 1.5,1.6 3.69904,1.80029 18.99903,1.80029 19.79998,0 22.20097,-0.69991 21.50097,-6.3999 -0.4,-4 -41.70049,-76.80079 -47.50049,-83.80078 l -4.10009,-5.09912 4.1997,-5.10059 c 5.4,-6.59999 47.6001,-80.700101 47.6001,-83.600098 0,-1.199999 -0.49902,-3.000099 -0.99902,-4.100098 -1,-1.799998 -2.29992,-1.899902 -19.8999,-1.899902 z"
         id="path25"
         style="fill:#ffffff;fill-opacity:1"
         inkscape:label="X" />
      <path
         d="m 346.19971,37.999512 c -15.49999,0 -16.1001,0.100197 -17.6001,2.200195 -1.4,1.999998 -1.59961,12.500081 -1.59961,93.000003 0,89.49991 -4.9e-4,90.80078 1.99951,92.80078 1.8,1.8 3.3008,1.99951 17.80078,1.99951 14.09999,0 16.09903,-0.20029 17.49903,-1.80029 1.59999,-1.7 1.70068,-9.59999 1.70068,-93.39991 0,-87.399908 -0.10029,-91.599606 -1.80029,-93.099605 -1.6,-1.399998 -4.40002,-1.700683 -18,-1.700683 z"
         id="path24"
         style="fill:#ffffff;fill-opacity:1"
         inkscape:label="I" />
      <path
         d="m 65.900391,37.999512 c -19.89998,0 -22.800002,0.200685 -24,1.700683 -1.199999,1.299999 -1.400684,16.999782 -1.700684,91.199705 -0.1,49.29995 2.93e-4,90.6003 0.300293,91.8003 1.199999,4.89999 2.599333,5.2998 19.299316,5.2998 8.599992,0 16.201368,-0.39981 16.901368,-0.7998 3.099996,-2 3.298828,-7.00096 3.298828,-80.40088 V 72.700195 l 3.900879,0.700196 c 12.699987,1.999998 26.498939,12.999922 41.898929,33.399899 6.79999,8.99999 14.50002,20.29935 34.5,50.79932 16.49998,25.09997 23.7002,34.4005 35.20019,46.00049 12.09999,12.19999 22.50011,18.70039 35.6001,22.40039 6.29999,1.7 10.30041,1.99951 28.40039,1.99951 11.49999,0 21.5001,-0.39981 22.1001,-0.7998 3.29999,-2.2 3.3999,-4.60049 3.3999,-94.4004 0,-69.899925 -0.29932,-89.80029 -1.29932,-91.800288 L 282.3999,38.500488 265.5,38.200195 c -16.29998,-0.299999 -17.09981,-0.200095 -18.7998,1.899903 -1.6,1.999998 -1.70069,7.200558 -1.70069,77.500492 v 75.3999 l -2.69971,-0.60059 c -9.19999,-2.2 -18.79942,-9.50011 -29.39941,-22.1001 C 208.5004,164.89981 194.29999,144.70047 181.5,125.50049 157.40002,89.400524 152.19999,82.299791 139.5,68.299805 126.20001,53.799819 109.4995,43.000583 94.999512,39.600586 90.199517,38.400587 82.600374,37.999512 65.900391,37.999512 Z"
         id="path23"
         style="fill:#ffffff;fill-opacity:1"
         inkscape:label="N" />
    </g>
  </g>
</svg>
